<svg xmlns="http://www.w3.org/2000/svg" width="105.438" height="21.938" viewBox="0 0 105.438 21.938">
  <path id="filmstock" fill="#f3651a" fill-rule="evenodd" d="M63.894,44.125V30.865h6.6v13.26H71.9v-14.4h-8.01v-0.84a10.415,10.415,0,0,1,.18-1.98,5.037,5.037,0,0,1,.6-1.635,3.006,3.006,0,0,1,1.155-1.11,3.787,3.787,0,0,1,1.845-.405,4.841,4.841,0,0,1,1.65.27,4.789,4.789,0,0,1,1.2.6l0.66-1.11a4.419,4.419,0,0,0-1.395-.69,6.275,6.275,0,0,0-4.29.165,4.549,4.549,0,0,0-1.71,1.3,5.42,5.42,0,0,0-.99,2,9.5,9.5,0,0,0-.315,2.5v0.93h-2.07v1.14h2.07v13.26h1.41Zm12.78,0h1.41V22.855h-1.41v21.27Zm6.18,0h1.41v-8.88a4.264,4.264,0,0,1,.06-0.735q0.06-.345.15-0.675a5.4,5.4,0,0,1,.585-1.215,4.535,4.535,0,0,1,2.01-1.725,3.209,3.209,0,0,1,1.305-.27A3,3,0,0,1,91,31.885a5.4,5.4,0,0,1,.885,3.18v9.06h1.41v-9.24a3.452,3.452,0,0,1,.075-0.735q0.075-.345.165-0.675a4.97,4.97,0,0,1,.57-1.095,4.532,4.532,0,0,1,.825-0.915,3.677,3.677,0,0,1,1.05-.615,3.438,3.438,0,0,1,1.245-.225A3.092,3.092,0,0,1,100,31.96a6.785,6.785,0,0,1,.885,3.765v8.4h1.44v-8.58a8.139,8.139,0,0,0-.525-3.21,5.33,5.33,0,0,0-1.26-1.86,3.746,3.746,0,0,0-1.515-.87,5.248,5.248,0,0,0-1.32-.21,5.16,5.16,0,0,0-1.875.3,5.36,5.36,0,0,0-1.455.87,5.812,5.812,0,0,0-.8.84,6.366,6.366,0,0,0-.675,1.08h-0.06a4.74,4.74,0,0,0-1.515-2.22,3.883,3.883,0,0,0-2.535-.87,4.708,4.708,0,0,0-2.82.78,5.773,5.773,0,0,0-1.74,2.04h-0.12v-2.49h-1.38q0.06,0.87.09,1.65t0.03,1.8v10.95Zm22.98-.69a6.021,6.021,0,0,0,1.62.72,7.069,7.069,0,0,0,1.98.27,5.226,5.226,0,0,0,3.48-1.11,3.716,3.716,0,0,0,1.32-3,3.548,3.548,0,0,0-.975-2.625,7.972,7.972,0,0,0-2.685-1.665,8.218,8.218,0,0,1-2.19-1.215,2.145,2.145,0,0,1-.72-1.725,2.463,2.463,0,0,1,.7-1.74,2.687,2.687,0,0,1,2.055-.75,4.276,4.276,0,0,1,1.725.3,5.5,5.5,0,0,1,1.035.57l0.57-1.17a5.667,5.667,0,0,0-1.35-.63,5.567,5.567,0,0,0-1.77-.27,5.017,5.017,0,0,0-1.83.315,4.185,4.185,0,0,0-1.38.855,3.694,3.694,0,0,0-.87,1.245,3.755,3.755,0,0,0-.3,1.485,3.15,3.15,0,0,0,.93,2.295,7.67,7.67,0,0,0,2.67,1.635,6.76,6.76,0,0,1,2.25,1.365,2.814,2.814,0,0,1-.075,3.84,3.422,3.422,0,0,1-2.505.8,4.843,4.843,0,0,1-1.77-.315,8.075,8.075,0,0,1-1.38-.675Zm12.63-16.35v2.64h-2.37v1.14h2.37v9.12a9.892,9.892,0,0,0,.15,1.785,3.85,3.85,0,0,0,.525,1.41,2.574,2.574,0,0,0,1.02.915,3.578,3.578,0,0,0,1.635.33,4.671,4.671,0,0,0,1.92-.33l-0.15-1.08a4.085,4.085,0,0,1-.66.15,6.176,6.176,0,0,1-.93.06,1.724,1.724,0,0,1-1.605-.765,4.272,4.272,0,0,1-.465-2.2v-9.39h3.99v-1.14H119.9v-3.18Zm11.355,2.805a6.2,6.2,0,0,0-2.115,1.47,7.046,7.046,0,0,0-1.47,2.4,9.237,9.237,0,0,0-.54,3.285,8.975,8.975,0,0,0,.5,3.075,7.087,7.087,0,0,0,1.365,2.34,5.782,5.782,0,0,0,2.055,1.485,6.345,6.345,0,0,0,2.535.51,6.809,6.809,0,0,0,2.355-.435,6.209,6.209,0,0,0,2.16-1.365,6.9,6.9,0,0,0,1.575-2.37,9.038,9.038,0,0,0,.6-3.48,9.161,9.161,0,0,0-.48-3.045,7.056,7.056,0,0,0-1.335-2.34,5.8,5.8,0,0,0-2.055-1.5,6.52,6.52,0,0,0-2.64-.525A6.43,6.43,0,0,0,129.818,29.89Zm4.83,1.32a5.08,5.08,0,0,1,1.575,1.545,6.96,6.96,0,0,1,.885,2.025,8.283,8.283,0,0,1,.285,2.085,8.147,8.147,0,0,1-.39,2.58,6.234,6.234,0,0,1-1.08,2.01,5.023,5.023,0,0,1-1.65,1.32,4.568,4.568,0,0,1-2.07.48,4.437,4.437,0,0,1-2.07-.48,4.955,4.955,0,0,1-1.605-1.32,6.206,6.206,0,0,1-1.05-1.995,8.038,8.038,0,0,1-.375-2.505,8.929,8.929,0,0,1,.3-2.28,6.118,6.118,0,0,1,.945-2.04,5.193,5.193,0,0,1,1.62-1.47,4.528,4.528,0,0,1,2.325-.57A4.33,4.33,0,0,1,134.648,31.21Zm17.144,11.2q-0.6.24-1.41,0.51a6.662,6.662,0,0,1-2.07.27,5.674,5.674,0,0,1-2.25-.435,5.121,5.121,0,0,1-1.77-1.245,5.554,5.554,0,0,1-1.155-1.965,7.708,7.708,0,0,1-.405-2.565,8.07,8.07,0,0,1,.36-2.415,5.889,5.889,0,0,1,1.08-2.025,5.364,5.364,0,0,1,1.785-1.4,5.536,5.536,0,0,1,2.475-.525,6.315,6.315,0,0,1,1.98.27,7.036,7.036,0,0,1,1.32.57l0.51-1.2a4.915,4.915,0,0,0-1.395-.585,8.108,8.108,0,0,0-2.265-.285,7.377,7.377,0,0,0-2.925.57,6.862,6.862,0,0,0-2.3,1.575,7.157,7.157,0,0,0-1.5,2.415,8.66,8.66,0,0,0-.54,3.12,8.9,8.9,0,0,0,.48,3,6.8,6.8,0,0,0,1.365,2.325,5.965,5.965,0,0,0,2.13,1.5,7.08,7.08,0,0,0,2.775.525,9.091,9.091,0,0,0,2.58-.315,8.954,8.954,0,0,0,1.5-.555Zm5.13-19.56h-1.41v21.27h1.41v-6l1.44-1.53,5.73,7.53h1.74l-6.48-8.43,5.7-5.97h-1.74l-4.98,5.37q-0.33.33-.7,0.78t-0.645.78h-0.06v-13.8Z" transform="translate(-60.406 -22.531)"/>
</svg>
